<svg width="120" height="34" viewBox="0 0 120 34" fill="none" xmlns="http://www.w3.org/2000/svg">
<path d="M15.3154 0.524414C16.3408 0.524414 17.2637 0.700195 18.084 1.05176C18.9336 1.37402 19.71 1.74023 20.4131 2.15039C21.1455 2.56055 21.834 2.94141 22.4785 3.29297C23.123 3.61523 23.7822 3.77637 24.4561 3.77637C24.9834 3.74707 25.584 3.67383 26.2578 3.55664C26.8438 3.43945 27.5176 3.26367 28.2793 3.0293C29.0703 2.76562 29.9492 2.38477 30.916 1.88672C29.9492 2.82422 29.1582 3.61523 28.543 4.25977C27.957 4.875 27.5029 5.3877 27.1807 5.79785C26.7998 6.2666 26.5215 6.63281 26.3457 6.89648C26.1699 7.21875 25.9062 7.70215 25.5547 8.34668C25.2324 8.93262 24.793 9.72363 24.2363 10.7197C23.6797 11.6865 22.9766 12.9609 22.127 14.543C22.127 12.5215 21.9219 10.9541 21.5117 9.84082C21.1309 8.72754 20.7061 7.87793 20.2373 7.29199C19.6807 6.61816 19.0508 6.19336 18.3477 6.01758C17.7031 5.92969 17.0586 6.04688 16.4141 6.36914C15.7695 6.66211 15.125 7.10156 14.4805 7.6875C13.8652 8.27344 13.2646 8.97656 12.6787 9.79688C12.1221 10.5879 11.6094 11.4229 11.1406 12.3018C10.7012 13.1807 10.335 14.0742 10.042 14.9824C9.74902 15.8613 9.55859 16.6816 9.4707 17.4434C9.38281 18.1172 9.36816 18.9082 9.42676 19.8164C9.48535 20.6953 9.61719 21.6035 9.82227 22.541C10.0273 23.4492 10.291 24.3428 10.6133 25.2217C10.9355 26.1006 11.3311 26.8916 11.7998 27.5947C12.2979 28.2686 12.8545 28.8252 13.4697 29.2646C14.085 29.6748 14.7881 29.8652 15.5791 29.8359C16.458 29.7773 17.3223 29.5137 18.1719 29.0449C18.9043 28.6641 19.6514 28.0781 20.4131 27.2871C21.1748 26.4668 21.834 25.3096 22.3906 23.8154L28.8945 25.002C27.0195 27.2871 25.1885 29.001 23.4014 30.1436C21.6436 31.2861 20.0615 32.0918 18.6553 32.5605C17.0146 33.0879 15.4619 33.3369 13.9971 33.3076C12.1514 33.1025 10.4229 32.5459 8.81152 31.6377C7.2002 30.7295 5.80859 29.6309 4.63672 28.3418C3.49414 27.0234 2.60059 25.5879 1.95605 24.0352C1.31152 22.4824 1.0332 20.959 1.12109 19.4648C1.17969 18.4688 1.38477 17.3115 1.73633 15.9932C2.08789 14.6455 2.55664 13.2686 3.14258 11.8623C3.75781 10.4561 4.49023 9.0791 5.33984 7.73145C6.18945 6.38379 7.12695 5.18262 8.15234 4.12793C9.17773 3.04395 10.291 2.17969 11.4922 1.53516C12.7227 0.861328 13.9971 0.524414 15.3154 0.524414ZM40.8002 1.22754C42.1186 1.40332 43.2318 1.49121 44.14 1.49121C44.6381 1.49121 45.0922 1.47656 45.5023 1.44727C45.9125 1.41797 46.4252 1.37402 47.0404 1.31543C47.5678 1.25684 48.227 1.19824 49.018 1.13965C49.809 1.08105 50.7318 0.978516 51.7865 0.832031C51.4057 1.125 51.1127 1.46191 50.9076 1.84277C50.7025 2.22363 50.5414 2.58984 50.4242 2.94141C50.307 3.35156 50.2191 3.77637 50.1605 4.21582C50.1313 4.47949 50.1166 5.02148 50.1166 5.8418C50.1459 6.66211 50.1605 7.6582 50.1605 8.83008C50.1898 10.002 50.1898 11.3057 50.1605 12.7412C50.1605 14.1768 50.1313 15.6416 50.0727 17.1357C50.0141 18.6006 49.9262 20.0654 49.809 21.5303C49.6918 22.9658 49.516 24.2988 49.2816 25.5293C49.0766 26.7305 48.7982 27.7852 48.4467 28.6934C48.1244 29.5723 47.7289 30.1875 47.2602 30.5391C46.2934 31.2715 45.2387 31.8721 44.0961 32.3408C42.9535 32.7803 41.8256 33.0732 40.7123 33.2197C39.599 33.3662 38.5443 33.3662 37.5482 33.2197C36.5814 33.1025 35.7611 32.8096 35.0873 32.3408C34.6479 32.0186 34.2377 31.5645 33.8568 30.9785C33.476 30.3926 33.1244 29.748 32.8021 29.0449C32.5092 28.3125 32.2309 27.5654 31.9672 26.8037C31.7328 26.0127 31.5277 25.2949 31.352 24.6504C31.1469 23.9766 30.9857 23.3906 30.8686 22.8926C30.7221 22.3652 30.6195 22.0137 30.5609 21.8379C30.4438 21.5742 30.2533 21.3105 29.9896 21.0469C29.726 20.7832 29.4477 20.5488 29.1547 20.3438C28.8617 20.1387 28.6127 19.9922 28.4076 19.9043C28.1732 19.7871 28.0414 19.7578 28.0121 19.8164C28.0121 19.875 28.2465 19.8896 28.7152 19.8604C29.1547 19.8018 29.6967 19.7432 30.3412 19.6846C30.9857 19.626 31.6596 19.582 32.3627 19.5527C33.0658 19.4941 33.6518 19.4795 34.1205 19.5088C34.5014 19.5088 34.9994 19.5234 35.6146 19.5527C36.142 19.582 36.8158 19.6113 37.6361 19.6406C38.4564 19.6406 39.4672 19.6699 40.6684 19.7285C39.9066 19.9629 39.2914 20.2266 38.8227 20.5195C38.3832 20.7832 38.0463 21.0322 37.8119 21.2666C37.5189 21.5596 37.3139 21.8525 37.1967 22.1455C37.1088 22.4092 37.0355 22.9512 36.977 23.7715C36.9477 24.5625 37.0063 25.3828 37.1527 26.2324C37.2992 27.082 37.5775 27.8584 37.9877 28.5615C38.3979 29.2646 39.0424 29.6602 39.9213 29.748C40.8588 29.8359 41.6205 29.6748 42.2064 29.2646C42.8217 28.8252 43.3051 28.2393 43.6566 27.5068C44.0082 26.7744 44.2719 25.9541 44.4477 25.0459C44.6234 24.1377 44.7699 23.2441 44.8871 22.3652C44.975 21.7793 45.0043 20.959 44.975 19.9043C44.9457 18.8496 44.8725 17.707 44.7553 16.4766C44.6381 15.2461 44.4916 13.9717 44.3158 12.6533C44.1693 11.335 44.0229 10.1191 43.8764 9.00586C43.7299 7.89258 43.5834 6.94043 43.4369 6.14941C43.3197 5.3584 43.2465 4.86035 43.2172 4.65527C43.1 4.27441 42.9389 3.87891 42.7338 3.46875C42.558 3.14648 42.309 2.78027 41.9867 2.37012C41.6938 1.95996 41.2982 1.5791 40.8002 1.22754ZM62.2859 3.24902C63.7508 3.33691 64.9813 3.41016 65.9773 3.46875C67.0027 3.49805 67.8523 3.52734 68.5262 3.55664C69.2879 3.58594 69.9324 3.58594 70.4598 3.55664C70.9871 3.52734 71.7049 3.4541 72.6131 3.33691C73.3748 3.24902 74.3855 3.11719 75.6453 2.94141C76.9344 2.73633 78.5311 2.47266 80.4354 2.15039C79.7615 2.82422 79.2342 3.43945 78.8533 3.99609C78.5018 4.52344 78.2234 4.97754 78.0184 5.3584C77.784 5.82715 77.6229 6.22266 77.535 6.54492C77.4764 6.83789 77.535 7.57031 77.7107 8.74219C77.8865 9.91406 78.1355 11.3057 78.4578 12.917C78.7801 14.499 79.1316 16.1982 79.5125 18.0146C79.8934 19.8018 80.2742 21.4863 80.6551 23.0684C81.0359 24.6211 81.3729 25.9541 81.6658 27.0674C81.9881 28.1514 82.2225 28.7959 82.3689 29.001C82.8084 29.6162 83.0867 30.0264 83.2039 30.2314C83.3211 30.4072 83.5262 30.5684 83.8191 30.7148C83.9363 30.7734 84.1268 30.8613 84.3904 30.9785C84.6248 31.0957 84.9324 31.2422 85.3133 31.418C85.7234 31.5938 86.2361 31.7988 86.8514 32.0332C85.7088 32.0918 84.7273 32.1357 83.907 32.165C83.0867 32.165 82.4129 32.1797 81.8855 32.209C81.2703 32.2383 80.743 32.2676 80.3035 32.2969C79.8641 32.2969 79.3367 32.3262 78.7215 32.3848C78.1941 32.4434 77.5057 32.502 76.6561 32.5605C75.8357 32.6191 74.8689 32.6777 73.7557 32.7363C74.3416 32.3262 74.8104 31.96 75.1619 31.6377C75.5428 31.2861 75.8357 30.9932 76.0408 30.7588C76.2752 30.4658 76.4363 30.2021 76.5242 29.9678C76.5828 29.7041 76.6268 29.3086 76.6561 28.7812C76.6854 28.3125 76.6854 27.6973 76.6561 26.9355C76.6268 26.1445 76.5535 25.1191 76.4363 23.8594L64.8787 25.0459C64.5857 25.5439 64.366 25.9834 64.2195 26.3643C64.073 26.7158 63.9705 27.0234 63.9119 27.2871C63.824 27.6094 63.7947 27.873 63.824 28.0781C63.8826 28.3125 63.9852 28.5908 64.1316 28.9131C64.2781 29.2061 64.4832 29.5576 64.7469 29.9678C65.0398 30.3486 65.4646 30.8027 66.0213 31.3301C65.2889 31.3008 64.5418 31.2861 63.7801 31.2861C63.0184 31.2861 62.3152 31.3008 61.6707 31.3301C60.909 31.3594 60.1619 31.3887 59.4295 31.418C58.6971 31.4473 57.8621 31.4912 56.9246 31.5498C56.1336 31.6084 55.2107 31.6816 54.1561 31.7695C53.0721 31.8281 51.9148 31.916 50.6844 32.0332C51.4461 31.6816 52.0906 31.3301 52.618 30.9785C53.1453 30.5977 53.5848 30.2461 53.9363 29.9238C54.3465 29.5723 54.698 29.2354 54.991 28.9131C55.1961 28.6201 55.6063 27.9463 56.2215 26.8916C56.8367 25.8076 57.5252 24.5332 58.2869 23.0684C59.0779 21.6035 59.8982 20.0361 60.7479 18.3662C61.6268 16.6963 62.4178 15.1289 63.1209 13.6641C63.824 12.1699 64.3953 10.8809 64.8348 9.79688C65.2742 8.71289 65.4939 8.00977 65.4939 7.6875C65.4354 7.30664 65.2889 6.88184 65.0545 6.41309C64.8494 6.00293 64.5271 5.53418 64.0877 5.00684C63.6775 4.47949 63.077 3.89355 62.2859 3.24902ZM75.909 20.6074C75.7332 19.582 75.5721 18.7031 75.4256 17.9707C75.2791 17.209 75.1619 16.5791 75.074 16.0811C74.9568 15.4951 74.8689 14.9824 74.8104 14.543C74.7225 14.1328 74.6199 13.6055 74.5027 12.9609C74.3855 12.4043 74.2391 11.7158 74.0633 10.8955C73.9168 10.0459 73.7264 9.03516 73.492 7.86328C71.8221 11.2031 70.5184 13.7959 69.5809 15.6416C68.6727 17.458 68.0135 18.791 67.6033 19.6406C67.1053 20.6367 66.827 21.2227 66.7684 21.3984L75.909 20.6074ZM95.2854 3.24902C96.7502 3.33691 97.9807 3.41016 98.9768 3.46875C100.002 3.49805 100.852 3.52734 101.526 3.55664C102.287 3.58594 102.932 3.58594 103.459 3.55664C103.987 3.52734 104.704 3.4541 105.613 3.33691C106.374 3.24902 107.385 3.11719 108.645 2.94141C109.934 2.73633 111.53 2.47266 113.435 2.15039C112.761 2.82422 112.234 3.43945 111.853 3.99609C111.501 4.52344 111.223 4.97754 111.018 5.3584C110.783 5.82715 110.622 6.22266 110.534 6.54492C110.476 6.83789 110.534 7.57031 110.71 8.74219C110.886 9.91406 111.135 11.3057 111.457 12.917C111.779 14.499 112.131 16.1982 112.512 18.0146C112.893 19.8018 113.274 21.4863 113.654 23.0684C114.035 24.6211 114.372 25.9541 114.665 27.0674C114.988 28.1514 115.222 28.7959 115.368 29.001C115.808 29.6162 116.086 30.0264 116.203 30.2314C116.321 30.4072 116.526 30.5684 116.819 30.7148C116.936 30.7734 117.126 30.8613 117.39 30.9785C117.624 31.0957 117.932 31.2422 118.313 31.418C118.723 31.5938 119.236 31.7988 119.851 32.0332C118.708 32.0918 117.727 32.1357 116.906 32.165C116.086 32.165 115.412 32.1797 114.885 32.209C114.27 32.2383 113.742 32.2676 113.303 32.2969C112.863 32.2969 112.336 32.3262 111.721 32.3848C111.194 32.4434 110.505 32.502 109.655 32.5605C108.835 32.6191 107.868 32.6777 106.755 32.7363C107.341 32.3262 107.81 31.96 108.161 31.6377C108.542 31.2861 108.835 30.9932 109.04 30.7588C109.275 30.4658 109.436 30.2021 109.524 29.9678C109.582 29.7041 109.626 29.3086 109.655 28.7812C109.685 28.3125 109.685 27.6973 109.655 26.9355C109.626 26.1445 109.553 25.1191 109.436 23.8594L97.8781 25.0459C97.5852 25.5439 97.3654 25.9834 97.2189 26.3643C97.0725 26.7158 96.9699 27.0234 96.9113 27.2871C96.8234 27.6094 96.7941 27.873 96.8234 28.0781C96.882 28.3125 96.9846 28.5908 97.1311 28.9131C97.2775 29.2061 97.4826 29.5576 97.7463 29.9678C98.0393 30.3486 98.4641 30.8027 99.0207 31.3301C98.2883 31.3008 97.5412 31.2861 96.7795 31.2861C96.0178 31.2861 95.3147 31.3008 94.6701 31.3301C93.9084 31.3594 93.1613 31.3887 92.4289 31.418C91.6965 31.4473 90.8615 31.4912 89.924 31.5498C89.133 31.6084 88.2102 31.6816 87.1555 31.7695C86.0715 31.8281 84.9143 31.916 83.6838 32.0332C84.4455 31.6816 85.09 31.3301 85.6174 30.9785C86.1447 30.5977 86.5842 30.2461 86.9357 29.9238C87.3459 29.5723 87.6975 29.2354 87.9904 28.9131C88.1955 28.6201 88.6057 27.9463 89.2209 26.8916C89.8361 25.8076 90.5246 24.5332 91.2863 23.0684C92.0773 21.6035 92.8977 20.0361 93.7473 18.3662C94.6262 16.6963 95.4172 15.1289 96.1203 13.6641C96.8234 12.1699 97.3947 10.8809 97.8342 9.79688C98.2736 8.71289 98.4934 8.00977 98.4934 7.6875C98.4348 7.30664 98.2883 6.88184 98.0539 6.41309C97.8488 6.00293 97.5266 5.53418 97.0871 5.00684C96.677 4.47949 96.0764 3.89355 95.2854 3.24902ZM108.908 20.6074C108.733 19.582 108.571 18.7031 108.425 17.9707C108.279 17.209 108.161 16.5791 108.073 16.0811C107.956 15.4951 107.868 14.9824 107.81 14.543C107.722 14.1328 107.619 13.6055 107.502 12.9609C107.385 12.4043 107.238 11.7158 107.063 10.8955C106.916 10.0459 106.726 9.03516 106.491 7.86328C104.821 11.2031 103.518 13.7959 102.58 15.6416C101.672 17.458 101.013 18.791 100.603 19.6406C100.105 20.6367 99.8264 21.2227 99.7678 21.3984L108.908 20.6074Z" fill="#6267E9"/>
</svg>
